<?xml version="1.0" encoding="UTF-8"?>
<svg xmlns="http://www.w3.org/2000/svg" version="1.1" viewBox="0 0 1234.79 222.5">
  <defs>
    <style>
      .cls-1 {
        fill: #394567;
      }
    </style>
  </defs>
  <!-- Generator: Adobe Illustrator 28.7.4, SVG Export Plug-In . SVG Version: 1.2.0 Build 166)  -->
  <g>
    <g id="Layer_1">
      <g>
        <path class="cls-1" d="M16.95,102.46l-.7,1.2c.34-.37.67-.73,1.02-1.08-.1-.04-.22-.08-.32-.12Z"/>
        <path class="cls-1" d="M126.37,211.24v-92.6c0-8.19-1.28-15.18-3.83-20.98-2.55-5.79-6.09-10.48-10.59-14.08-4.52-3.6-9.9-6.14-16.16-7.64-6.25-1.5-13.19-2.25-20.84-2.25-13.19,0-24.77,2.45-34.73,7.34-9.96,4.9-17.71,11.49-23.28,19.78-5.55,8.29-8.33,17.53-8.33,27.72,0,5.8,1.74,10.04,5.2,12.74,3.48,2.69,7.87,4.04,13.2,4.04s10.02-1.25,13.38-3.75c3.35-2.49,5.15-6.33,5.38-11.53,0-5.79-2.49-10.99-7.47-15.59-4.93-4.54-11.94-8.49-21.04-11.86-.35.35-.68.71-1.02,1.08l.7-1.2c.1.04.22.08.32.12,3.99-4.06,8.86-7.14,14.62-9.26,6.25-2.3,13.42-3.45,21.54-3.45,13.66,0,23.61,2.7,29.87,8.09,6.25,5.4,9.38,14.49,9.38,27.27v16.78c-12.04,1.61-23.39,3.55-34.04,5.85s-20.2,5.2-28.65,8.69c-8.46,3.5-15.12,8.09-19.97,13.78-4.87,5.7-7.3,12.64-7.3,20.83,0,8.59,3.25,15.93,9.73,22.03,6.49,6.09,16.45,9.13,29.88,9.13,11.57,0,21.93-3.24,31.09-9.73,9.15-6.49,15.57-16.64,19.28-30.42v40.15l53.84-9.58v-1.2l-20.15-.3ZM92.68,170.18c0,6.4-.93,11.84-2.78,16.33-1.85,4.5-4.35,8.15-7.47,10.94-3.13,2.8-6.49,4.85-10.07,6.15-3.59,1.3-7.01,1.94-10.25,1.94-7.88,0-13.84-1.84-17.9-5.54-4.05-3.69-6.07-9.34-6.07-16.93,0-6.99,1.91-13.08,5.73-18.28,3.83-5.19,9.78-9.54,17.9-13.04,8.1-3.49,18.41-6.14,30.92-7.94v26.37Z"/>
        <path class="cls-1" d="M403.22,217.83v1.5h-70.52v-1.5l16.68-1.5v-95.29c0-11.99-2.32-20.68-6.94-26.07-4.64-5.4-11.12-8.09-19.46-8.09s-14.64,2.95-19.62,8.84-7.47,14.33-7.47,25.32v95.29l16.67,1.5v1.5h-67.04v-1.5l16.67-1.5v-95.29c0-11.99-2.32-20.68-6.94-26.07-4.64-5.4-11.12-8.09-19.45-8.09s-14.65,2.84-19.62,8.54c-4.98,5.69-7.48,13.83-7.48,24.42v96.49l16.68,1.5v1.5h-70.16v-1.5l20.15-1.5V84.78l-20.15-.3v-1.2l53.48-9.59v35.06c2.55-11.18,7.93-19.82,16.16-25.92,8.22-6.09,18-9.14,29.35-9.14,10.19,0,18.29,1.75,24.32,5.24,6.02,3.5,10.42,8.75,13.19,15.74,1.87,4.68,3.11,10.17,3.71,16.46,2.21-11.41,7.41-20.45,15.58-27.1,8.45-6.89,18.58-10.34,30.39-10.34,14.81,0,25.47,3.9,31.96,11.69,6.48,7.79,9.73,19.98,9.73,36.56v94.39l20.15,1.5Z"/>
        <path class="cls-1" d="M434.13,102.46l-.7,1.2c.34-.37.67-.73,1.02-1.08-.1-.04-.22-.08-.32-.12Z"/>
        <path class="cls-1" d="M543.55,211.24v-92.6c0-8.19-1.28-15.18-3.83-20.98-2.55-5.79-6.07-10.48-10.59-14.08-4.51-3.6-9.9-6.14-16.15-7.64-6.25-1.5-13.2-2.25-20.84-2.25-13.2,0-24.78,2.45-34.74,7.34-9.96,4.9-17.71,11.49-23.26,19.78-5.56,8.29-8.35,17.53-8.35,27.72,0,5.8,1.74,10.04,5.22,12.74,3.48,2.69,7.87,4.04,13.2,4.04s10.02-1.25,13.37-3.75c3.36-2.49,5.16-6.33,5.39-11.53,0-5.79-2.49-10.99-7.47-15.59-4.93-4.54-11.94-8.48-21.04-11.86-.35.35-.68.71-1.02,1.08l.7-1.2c.1.04.22.08.32.12,3.99-4.06,8.86-7.14,14.61-9.26,6.26-2.3,13.43-3.45,21.54-3.45,13.67,0,23.62,2.7,29.87,8.09,6.26,5.4,9.38,14.49,9.38,27.27v16.78c-12.04,1.61-23.39,3.55-34.03,5.85-10.66,2.3-20.22,5.2-28.67,8.69-8.45,3.5-15.1,8.09-19.97,13.78-4.86,5.7-7.29,12.64-7.29,20.83,0,8.59,3.25,15.93,9.73,22.03,6.48,6.09,16.44,9.13,29.87,9.13,11.58,0,21.94-3.24,31.09-9.73,9.15-6.49,15.58-16.64,19.28-30.42v40.15l53.84-9.58v-1.2l-20.15-.3ZM509.85,170.18c0,6.4-.93,11.84-2.77,16.33-1.87,4.5-4.35,8.15-7.48,10.94-3.12,2.8-6.48,4.85-10.07,6.15-3.59,1.3-7,1.94-10.25,1.94-7.87,0-13.84-1.84-17.89-5.54-4.06-3.69-6.07-9.34-6.07-16.93,0-6.99,1.9-13.08,5.73-18.28,3.83-5.19,9.78-9.54,17.89-13.04,8.1-3.49,18.42-6.14,30.92-7.94v26.37Z"/>
        <path class="cls-1" d="M592.52,11.06h-20.15v-1.5l53.84-7.19v213.96l20.15,1.5v1.5h-73.99v-1.5l20.15-1.5V11.06Z"/>
        <path class="cls-1" d="M710.63,49.27v115.85c0,12.47,1.5,21.35,4.51,26.62,3.01,5.28,8.33,7.92,15.98,7.92,4.39,0,8.16-1.56,11.29-4.68,3.12-3.11,5.49-8.45,7.12-16.01,1.61-7.55,2.43-17.68,2.43-30.4h1.74c0,17.75-1.34,32.02-4,42.81-2.67,10.8-6.84,18.66-12.51,23.57-5.68,4.91-12.8,7.37-21.36,7.37-13.2,0-22.99-4.79-29.35-14.39-6.38-9.59-9.55-23.62-9.55-42.09V49.27h-20.15v-1.08l28.48-24.46,24.67-21.23h.7v41.87h43.07v4.9h-43.07Z"/>
        <path class="cls-1" d="M931.89,217.83v1.5h-73.64v-1.5l19.8-1.5v-93.19c0-13.59-2.72-23.03-8.16-28.32-5.45-5.29-12.57-7.94-21.36-7.94-9.26,0-16.55,2.65-21.89,7.94-5.33,5.29-7.99,15.03-7.99,29.21v92.3l19.45,1.5v1.5h-73.29v-1.5l20.15-1.5V11.06h-20.15v-1.5l53.84-7.19v106.98c2.55-12.38,8.04-21.43,16.5-27.12,8.45-5.69,19.05-8.54,31.78-8.54,14.83,0,26,3.95,33.52,11.84,7.52,7.89,11.29,20.03,11.29,36.41v94.39l20.15,1.5Z"/>
        <path class="cls-1" d="M1067.72,147.41c-1.62,18.58-5.97,31.51-13.03,38.8-7.07,7.3-16.51,10.94-28.31,10.94-9.97,0-18.48-2.89-25.54-8.69-7.07-5.79-12.51-13.68-16.32-23.67-3.83-9.99-5.74-21.28-5.74-33.86,0-8.63.57-16.22,1.72-22.78h87.22c-.7-5.59-3.3-11.03-7.82-16.33-4.51-5.29-10.59-9.64-18.23-13.04-7.64-3.39-16.9-5.09-27.79-5.09s-20.49,1.85-28.83,5.54c-8.35,3.7-15.23,8.9-20.67,15.59-5.45,6.69-9.68,14.38-12.68,23.07-3.01,8.69-4.52,18.13-4.52,28.32,0,13.78,2.38,26.47,7.12,38.06,4.75,11.59,11.81,20.82,21.2,27.72,9.38,6.89,21.24,10.33,35.6,10.33,18.76,0,33.12-6.09,43.07-18.28,9.96-12.18,15.05-31.06,15.28-56.63h-1.73ZM982.43,99.76c2.43-8.19,6.07-14.33,10.94-18.43,4.86-4.09,10.64-6.14,17.36-6.14,5.32,0,9.78,1.45,13.38,4.34,3.58,2.9,6.31,6.7,8.16,11.39,1.38,3.5,2.38,7.36,2.98,11.58h-53.57c.23-.94.48-1.85.74-2.74Z"/>
        <path class="cls-1" d="M1105.23,102.46l-.7,1.2c.34-.37.67-.73,1.02-1.08-.1-.04-.22-.08-.32-.12Z"/>
        <path class="cls-1" d="M1214.64,211.24v-92.6c0-8.19-1.28-15.18-3.81-20.98-2.55-5.79-6.09-10.48-10.59-14.08-4.52-3.6-9.9-6.14-16.16-7.64-6.25-1.5-13.2-2.25-20.84-2.25-13.19,0-24.78,2.45-34.73,7.34-9.97,4.9-17.72,11.49-23.28,19.78-5.56,8.29-8.33,17.53-8.33,27.72,0,5.8,1.73,10.04,5.2,12.74,3.48,2.69,7.87,4.04,13.2,4.04s10.02-1.25,13.38-3.75c3.35-2.49,5.15-6.33,5.38-11.53,0-5.79-2.49-10.99-7.47-15.59-4.93-4.54-11.94-8.49-21.04-11.86-.35.35-.68.71-1.02,1.08l.7-1.2c.1.04.22.08.32.12,3.99-4.06,8.86-7.14,14.61-9.26,6.26-2.3,13.43-3.45,21.54-3.45,13.67,0,23.62,2.7,29.87,8.09,6.26,5.4,9.39,14.49,9.39,27.27v16.78c-12.04,1.61-23.4,3.55-34.04,5.85-10.65,2.3-20.2,5.2-28.65,8.69-8.46,3.5-15.12,8.09-19.98,13.78-4.86,5.7-7.29,12.64-7.29,20.83,0,8.59,3.25,15.93,9.73,22.03,6.48,6.09,16.45,9.13,29.87,9.13,11.58,0,21.94-3.24,31.09-9.73,9.15-6.49,15.58-16.64,19.29-30.42v40.15l53.83-9.58v-1.2l-20.15-.3ZM1180.96,170.18c0,6.4-.94,11.84-2.78,16.33-1.85,4.5-4.35,8.15-7.47,10.94-3.13,2.8-6.49,4.85-10.08,6.15-3.58,1.3-7,1.94-10.24,1.94-7.88,0-13.84-1.84-17.9-5.54-4.06-3.69-6.07-9.34-6.07-16.93,0-6.99,1.91-13.08,5.73-18.28,3.83-5.19,9.78-9.54,17.9-13.04,8.1-3.49,18.41-6.14,30.92-7.94v26.37Z"/>
      </g>
    </g>
  </g>
</svg>